<svg xmlns="http://www.w3.org/2000/svg" width="30" height="22.808" viewBox="0 0 30 22.808">
  <path id="Union_6" data-name="Union 6" d="M-5873-6794.192a6,6,0,0,1,6-6,6,6,0,0,1,6,6,6,6,0,0,1-6,6A6,6,0,0,1-5873-6794.192Zm2.79-.434-.549.547a.39.39,0,0,0,0,.549l2.516,2.514a.387.387,0,0,0,.549,0l4.451-4.451a.388.388,0,0,0,0-.547l-.547-.547a.387.387,0,0,0-.549,0l-3.631,3.63-1.694-1.7a.389.389,0,0,0-.274-.113A.384.384,0,0,0-5870.211-6794.626Zm-19.852,2.024v-3.3c0-1.455-.007-3.1.135-4.509l.12-.885a5.033,5.033,0,0,1,.7-2.012,1.718,1.718,0,0,1-.468.07,1.451,1.451,0,0,1-1.4-1.244,1.223,1.223,0,0,1,.738-1.429,1.775,1.775,0,0,1,.486-.062c.174,0,.35.017.537.036l.019,0,.024,0c.224.022.426.039.638.039a3.169,3.169,0,0,0,.364-.019,10.722,10.722,0,0,0,.742-1.747c.438-1.222.848-2.373,2.034-2.921.591-.312,3.815-.421,6.4-.421,2.776,0,6.019.126,6.576.407,1.236.576,1.6,1.712,1.993,2.916a10.143,10.143,0,0,0,.692,1.752l.007,0c.27,0,.543-.025.785-.048h.012c.24-.022.467-.044.684-.044a1.784,1.784,0,0,1,.632.1,1.412,1.412,0,0,1,.5,1.731,1.406,1.406,0,0,1-1.289.841,1.457,1.457,0,0,1-.32-.036,13.124,13.124,0,0,1,.431,1.3,8.006,8.006,0,0,0-4.762,2.672,8,8,0,0,0-1.94,5.177h-2.988v-1.812h.229a3.82,3.82,0,0,0,1.978-1.371,3.809,3.809,0,0,0,.772-2.278v-2.267a.8.8,0,0,0-.226-.583.792.792,0,0,0-.565-.236h-.5v-2.562a.709.709,0,0,0-.2-.507.7.7,0,0,0-.5-.2h-.414a.711.711,0,0,0-.5.2.7.7,0,0,0-.212.507v2.563h-1.435v-2.562a.708.708,0,0,0-.205-.511.7.7,0,0,0-.507-.214h-.455a.7.7,0,0,0-.5.2.709.709,0,0,0-.215.507v2.563h-.482a.111.111,0,0,0-.025,0,.8.8,0,0,0-.557.229.8.8,0,0,0-.236.578v2.294a3.858,3.858,0,0,0,2.817,3.716h.135v1.812h-6.79v1.569c0,.835-.9,1.219-1.743,1.219S-5890.063-6791.767-5890.063-6792.6Z" transform="translate(5891 6811)" fill="#fff"/>
</svg>
