<svg xmlns="http://www.w3.org/2000/svg" width="23" height="21" viewBox="0 0 23 21">
  <g id="Group_14139" data-name="Group 14139" transform="translate(0.001 0)">
    <path id="Union_10" data-name="Union 10" d="M-5897-5995a6,6,0,0,1,6-6,6,6,0,0,1,6,6,6,6,0,0,1-6,6A6,6,0,0,1-5897-5995Zm4.887,2.323a1.115,1.115,0,0,0,1.113,1.113,1.114,1.114,0,0,0,1.113-1.113,1.113,1.113,0,0,0-1.113-1.113A1.114,1.114,0,0,0-5892.114-5992.677Zm.058-5.113.179,3.29a.29.29,0,0,0,.29.274h1.175a.291.291,0,0,0,.29-.274l.18-3.29a.29.29,0,0,0-.29-.306h-1.534A.29.29,0,0,0-5892.056-5997.791Zm-14.606,3.791a1.339,1.339,0,0,1-1.338-1.338,1.338,1.338,0,0,1,1.338-1.336h7.84A8.067,8.067,0,0,0-5899-5995a8.1,8.1,0,0,0,.062,1h-7.726Zm8-3.311h-8.172v-10.738a1.968,1.968,0,0,1,1.979-1.952h4.944a1.967,1.967,0,0,1,1.978,1.952v5.858h.248a2.723,2.723,0,0,1,1.909.772,8.11,8.11,0,0,0-1.1.99,1.252,1.252,0,0,0-.812-.3h-.248v1.734a8.016,8.016,0,0,0-.727,1.682Zm-6.193-6.833h4.944v-3.9h-4.944Zm11.371,1.537h0v-.825a1.718,1.718,0,0,1-1.483-1.686v-1.892l-1.169-1.154a.48.48,0,0,1-.143-.342.489.489,0,0,1,.143-.347l.353-.347a.5.5,0,0,1,.35-.144.493.493,0,0,1,.348.144l2.5,2.474a1.932,1.932,0,0,1,.582,1.381v2.408a7.873,7.873,0,0,0-1.482.332Z" transform="translate(5908 6010)" fill="#fff"/>
  </g>
</svg>
