<svg xmlns="http://www.w3.org/2000/svg" width="70.643" height="70.57" viewBox="0 0 70.643 70.57">
  <g id="Group_14121" data-name="Group 14121" transform="translate(-131.701 -147.698)">
    <ellipse id="Ellipse_271" data-name="Ellipse 271" cx="35.322" cy="35.285" rx="35.322"
        ry="35.285" transform="translate(131.701 147.698)" fill="#990909" />
    <g id="Group_14142" data-name="Group 14142" transform="translate(0 -1)">
      <path id="Union_6" data-name="Union 6"
          d="M-5868.9-6790.367c0-.037,0-.073,0-.11a3.579,3.579,0,0,1-2.021-3.251v-1.292a1.863,1.863,0,0,0-1.874-1.853h-.375v5.2h-13.49v-16.331a2.984,2.984,0,0,1,3-2.969h7.494a2.985,2.985,0,0,1,3,2.969v8.907h.378a4.1,4.1,0,0,1,4.118,4.087v1.485a1.1,1.1,0,0,0,.212.65,7.37,7.37,0,0,1,2.036-3v-5.115a2.6,2.6,0,0,1-2.248-2.564v-2.876l-1.771-1.754a.741.741,0,0,1,0-1.049l.535-.528a.752.752,0,0,1,1.057,0l3.794,3.762a2.959,2.959,0,0,1,.88,2.1v6.652a7.348,7.348,0,0,1,2.643-.489,7.366,7.366,0,0,1,7.366,7.366,7.366,7.366,0,0,1-7.366,7.367A7.366,7.366,0,0,1-5868.9-6790.367Zm3.423-.532-.671.672a.477.477,0,0,0,0,.672l3.088,3.088a.473.473,0,0,0,.672,0l5.467-5.464a.477.477,0,0,0,0-.672l-.672-.672a.477.477,0,0,0-.674,0l-4.456,4.456-2.082-2.08a.473.473,0,0,0-.59-.065l-.082.065Zm-18.184-11.17h7.494v-5.938h-7.494Zm-2.75,15.271a1.945,1.945,0,0,1-1.945-1.945,1.946,1.946,0,0,1,1.945-1.945h14.782a1.946,1.946,0,0,1,1.945,1.945,1.945,1.945,0,0,1-1.945,1.945Z"
          transform="translate(6039.855 6981.87)" fill="#fff" />
      <g id="Group_14141" data-name="Group 14141" transform="translate(-59.73 -30.017)">
        <circle id="Ellipse_273" data-name="Ellipse 273" cx="10" cy="10" r="10"
            transform="translate(228 212.001)" fill="#990909" />
        <path id="exclamation-circle-solid"
            d="M22.732,15.366A7.366,7.366,0,1,1,15.366,8,7.366,7.366,0,0,1,22.732,15.366Zm-7.366,1.485a1.366,1.366,0,1,0,1.366,1.366A1.366,1.366,0,0,0,15.366,16.851Zm-1.3-4.911.22,4.039a.356.356,0,0,0,.356.337h1.442a.356.356,0,0,0,.356-.337l.22-4.039a.356.356,0,0,0-.356-.376H14.425a.356.356,0,0,0-.356.376Z"
            transform="translate(222.635 206.635)" fill="#fff" />
      </g>
    </g>
  </g>
</svg>
