<svg xmlns="http://www.w3.org/2000/svg" width="22.5" height="22.5" viewBox="0 0 22.5 22.5">
  <path id="Path_336" data-name="Path 336" d="M24.754,7.239h-.438V4.871a.651.651,0,0,0-.615-.686h-.4a.651.651,0,0,0-.663.639V7.216H21.3V4.847a.651.651,0,0,0-.639-.663h-.367a.651.651,0,0,0-.663.639V7.2h-.462a.734.734,0,0,0-.746.722v2.108a3.553,3.553,0,0,0,2.605,3.434h0l.355.071v8.408a1.776,1.776,0,0,1-3.553,0V18.395a4.133,4.133,0,0,0-3.849-4.109V5.664A2.664,2.664,0,0,0,11.313,3H5.664A2.664,2.664,0,0,0,3,5.664V24.837a.664.664,0,0,0,.663.663h9.627a.664.664,0,0,0,.663-.663V15.47a2.948,2.948,0,0,1,2.664,2.925v3.553a2.96,2.96,0,0,0,5.921,0V13.539l.414-.095A3.374,3.374,0,0,0,25.5,10.105V7.985a.734.734,0,0,0-.722-.746ZM11.988,11.976,7.9,18.276a.261.261,0,0,1-.166.118h-.13a.274.274,0,0,1-.166-.284l.722-4.287H5.179a.26.26,0,0,1-.225-.166.235.235,0,0,1,0-.249l4.1-6.347a.248.248,0,0,1,.3-.095.26.26,0,0,1,.166.272l-.722,4.3h2.984a.25.25,0,0,1,.225.13.262.262,0,0,1-.012.261Z" transform="translate(-3 -3)" fill="#fff"/>
</svg>
