<svg xmlns="http://www.w3.org/2000/svg" width="70.643" height="70.57" viewBox="0 0 70.643 70.57">
  <g id="Group_14121" data-name="Group 14121" transform="translate(-131.701 -147.698)">
    <ellipse id="Ellipse_271" data-name="Ellipse 271" cx="35.322" cy="35.285" rx="35.322" ry="35.285" transform="translate(131.701 147.698)" fill="#009400"/>
    <path id="Union_6" data-name="Union 6" d="M-5868.9-6790.366a7.366,7.366,0,0,1,7.365-7.366,7.367,7.367,0,0,1,7.366,7.366,7.367,7.367,0,0,1-7.366,7.365A7.365,7.365,0,0,1-5868.9-6790.366Zm3.425-.533-.674.671a.479.479,0,0,0,0,.674l3.089,3.087a.474.474,0,0,0,.674,0l5.464-5.465a.476.476,0,0,0,0-.671l-.671-.671a.474.474,0,0,0-.674,0l-4.458,4.456-2.079-2.081a.481.481,0,0,0-.336-.139A.474.474,0,0,0-5865.479-6790.9Zm-24.372,2.484v-4.05c0-1.786-.008-3.807.166-5.536l.146-1.087a6.19,6.19,0,0,1,.856-2.47,2.093,2.093,0,0,1-.575.086,1.78,1.78,0,0,1-1.714-1.527,1.5,1.5,0,0,1,.906-1.755,2.2,2.2,0,0,1,.6-.075c.214,0,.43.021.659.044l.023,0,.029,0a7.8,7.8,0,0,0,.783.049,3.933,3.933,0,0,0,.447-.023,13.088,13.088,0,0,0,.91-2.145c.538-1.5,1.041-2.913,2.5-3.586.726-.383,4.684-.517,7.854-.517,3.408,0,7.389.155,8.073.5,1.518.706,1.969,2.1,2.447,3.579a12.426,12.426,0,0,0,.85,2.151l.008,0c.332,0,.667-.031.963-.06h.014c.294-.028.573-.055.84-.055a2.186,2.186,0,0,1,.776.117,1.734,1.734,0,0,1,.608,2.126,1.727,1.727,0,0,1-1.582,1.032,1.789,1.789,0,0,1-.393-.044,16.035,16.035,0,0,1,.528,1.6,9.828,9.828,0,0,0-5.846,3.28,9.814,9.814,0,0,0-2.381,6.355h-3.668v-2.224h.281a4.684,4.684,0,0,0,2.428-1.684,4.675,4.675,0,0,0,.949-2.8v-2.782a.988.988,0,0,0-.277-.716.97.97,0,0,0-.694-.289h-.609v-3.146a.869.869,0,0,0-.25-.622.859.859,0,0,0-.608-.251h-.508a.873.873,0,0,0-.615.251.859.859,0,0,0-.26.622v3.146h-1.761v-3.146a.866.866,0,0,0-.251-.627.861.861,0,0,0-.623-.263h-.559a.865.865,0,0,0-.61.25.873.873,0,0,0-.264.623v3.146h-.592a.11.11,0,0,0-.031,0,.978.978,0,0,0-.684.281.977.977,0,0,0-.29.709v2.816a4.736,4.736,0,0,0,3.458,4.562h.165v2.226h-8.335v1.926c0,1.026-1.109,1.5-2.14,1.5S-5889.851-6787.389-5889.851-6788.415Z" transform="translate(6039.856 6981.87)" fill="#fff"/>
  </g>
</svg>
