<svg xmlns="http://www.w3.org/2000/svg" width="29.999" height="22.808" viewBox="0 0 29.999 22.808">
  <path id="Union_7" data-name="Union 7" d="M-6309-6794.192a6,6,0,0,1,6-6,6,6,0,0,1,6,6,6,6,0,0,1-6,6A6,6,0,0,1-6309-6794.192Zm4.887,2.323a1.113,1.113,0,0,0,1.113,1.113,1.114,1.114,0,0,0,1.113-1.113,1.113,1.113,0,0,0-1.113-1.113A1.112,1.112,0,0,0-6304.114-6791.87Zm.056-5.112.18,3.289a.289.289,0,0,0,.289.275h1.174a.291.291,0,0,0,.291-.275l.179-3.289a.291.291,0,0,0-.291-.308h-1.533A.29.29,0,0,0-6304.058-6796.982Zm-22,4.379v-2.682c0-.2,0-.4,0-.608v-.009c0-1.455-.007-3.1.135-4.509l.12-.885a5.006,5.006,0,0,1,.7-2.012,1.739,1.739,0,0,1-.47.07,1.45,1.45,0,0,1-1.4-1.244,1.224,1.224,0,0,1,.74-1.429,1.75,1.75,0,0,1,.484-.062c.174,0,.351.017.537.036l.019,0,.025,0a6.361,6.361,0,0,0,.636.039,3.138,3.138,0,0,0,.364-.019,10.767,10.767,0,0,0,.742-1.747c.438-1.222.849-2.373,2.034-2.921.592-.312,3.815-.421,6.4-.421,2.776,0,6.019.126,6.577.407,1.234.576,1.6,1.712,1.992,2.916a10.1,10.1,0,0,0,.692,1.752l.007,0c.27,0,.543-.025.784-.048h.012c.239-.022.467-.044.684-.044a1.784,1.784,0,0,1,.632.1,1.41,1.41,0,0,1,.5,1.731,1.407,1.407,0,0,1-1.289.841,1.46,1.46,0,0,1-.32-.036,13.127,13.127,0,0,1,.431,1.3,8,8,0,0,0-4.762,2.672,8,8,0,0,0-1.94,5.177h-2.986v-1.812h.229a3.823,3.823,0,0,0,1.976-1.371,3.808,3.808,0,0,0,.774-2.278v-2.267a.8.8,0,0,0-.227-.583.79.79,0,0,0-.566-.236h-.5v-2.562a.708.708,0,0,0-.2-.507.7.7,0,0,0-.5-.2h-.414a.705.705,0,0,0-.5.2.7.7,0,0,0-.212.507v2.563h-1.436v-2.562a.712.712,0,0,0-.2-.511.709.709,0,0,0-.507-.214h-.457a.7.7,0,0,0-.5.2.708.708,0,0,0-.213.507v2.563h-.484a.116.116,0,0,0-.026,0,.793.793,0,0,0-.555.229.781.781,0,0,0-.236.578v2.294a3.857,3.857,0,0,0,2.815,3.716h.135v1.812h-6.788v1.569c0,.835-.9,1.219-1.745,1.219S-6326.062-6791.767-6326.062-6792.6Z" transform="translate(6327 6811)" fill="#fff"/>
</svg>
