<svg id="Group_14139" data-name="Group 14139" xmlns="http://www.w3.org/2000/svg" width="16" height="16" viewBox="0 0 16 16">
  <path id="Path_2" data-name="Path 2" d="M73.252,43.273l-2.5-2.474a.5.5,0,0,0-.7,0l-.353.348a.485.485,0,0,0,0,.69l1.169,1.154v1.891a1.712,1.712,0,0,0,1.483,1.686v4.906a.742.742,0,0,1-1.483,0V50.5a2.7,2.7,0,0,0-2.717-2.687H67.9V41.952A1.965,1.965,0,0,0,65.922,40H60.978A1.965,1.965,0,0,0,59,41.952V52.69h8.9V49.274h.247a1.227,1.227,0,0,1,1.236,1.218v.85a2.294,2.294,0,0,0,1.993,2.315,2.225,2.225,0,0,0,2.446-1.97q.011-.108.011-.217V44.655A1.947,1.947,0,0,0,73.252,43.273Zm-7.33,2.584H60.978v-3.9h4.944Z" transform="translate(-57.833 -40)" fill="#fff"/>
  <rect id="Rectangle_7" data-name="Rectangle 7" width="10.838" height="2.675" rx="1.337" transform="translate(0 13.325)" fill="#fff"/>
</svg>
