<svg xmlns="http://www.w3.org/2000/svg" width="70.643" height="70.57" viewBox="0 0 70.643 70.57">
  <g id="Group_14121" data-name="Group 14121" transform="translate(-131.701 -147.698)">
    <ellipse id="Ellipse_271" data-name="Ellipse 271" cx="35.322" cy="35.285" rx="35.322" ry="35.285" transform="translate(131.701 147.698)" fill="#990909"/>
    <path id="Union_8" data-name="Union 8" d="M-6304.9-6790.366a7.366,7.366,0,0,1,7.366-7.365,7.367,7.367,0,0,1,7.365,7.365,7.365,7.365,0,0,1-7.365,7.365A7.364,7.364,0,0,1-6304.9-6790.366Zm6,2.852a1.366,1.366,0,0,0,1.366,1.366,1.367,1.367,0,0,0,1.365-1.366,1.366,1.366,0,0,0-1.365-1.366A1.365,1.365,0,0,0-6298.9-6787.515Zm.068-6.275.221,4.037a.355.355,0,0,0,.354.338h1.441a.357.357,0,0,0,.357-.338l.22-4.037a.357.357,0,0,0-.356-.378h-1.882A.356.356,0,0,0-6298.835-6793.79Zm-27.014,5.376v-3.293c0-.243,0-.493,0-.747v-.011c0-1.785-.008-3.806.166-5.535l.147-1.087a6.141,6.141,0,0,1,.857-2.47,2.165,2.165,0,0,1-.577.086,1.78,1.78,0,0,1-1.714-1.527,1.5,1.5,0,0,1,.908-1.755,2.126,2.126,0,0,1,.594-.076c.214,0,.431.021.659.044l.023,0,.031,0a7.686,7.686,0,0,0,.78.048,3.907,3.907,0,0,0,.447-.022,13.3,13.3,0,0,0,.911-2.145c.537-1.5,1.042-2.913,2.5-3.586.727-.383,4.685-.518,7.855-.518,3.408,0,7.389.155,8.074.5,1.516.707,1.967,2.1,2.445,3.58a12.392,12.392,0,0,0,.851,2.151l.008,0c.332,0,.667-.031.963-.059l.015,0c.294-.027.573-.055.84-.055a2.186,2.186,0,0,1,.776.118,1.731,1.731,0,0,1,.608,2.125,1.726,1.726,0,0,1-1.582,1.033,1.73,1.73,0,0,1-.393-.045,16.536,16.536,0,0,1,.529,1.6,9.824,9.824,0,0,0-5.847,3.28,9.81,9.81,0,0,0-2.382,6.355h-3.666v-2.224h.281a4.692,4.692,0,0,0,2.425-1.684,4.677,4.677,0,0,0,.951-2.8v-2.782a.985.985,0,0,0-.278-.716.971.971,0,0,0-.7-.29h-.608v-3.146a.87.87,0,0,0-.25-.623.856.856,0,0,0-.608-.25h-.508a.863.863,0,0,0-.612.25.861.861,0,0,0-.261.623v3.146h-1.763v-3.146a.873.873,0,0,0-.25-.627.867.867,0,0,0-.623-.263h-.561a.864.864,0,0,0-.61.25.867.867,0,0,0-.262.623v3.146h-.595a.168.168,0,0,0-.031,0,.973.973,0,0,0-.682.28.958.958,0,0,0-.289.71v2.816a4.734,4.734,0,0,0,3.455,4.562h.166v2.225h-8.333v1.927c0,1.025-1.109,1.5-2.143,1.5S-6325.849-6787.389-6325.849-6788.414Z" transform="translate(6475.855 6981.87)" fill="#fff"/>
  </g>
</svg>
