<svg xmlns="http://www.w3.org/2000/svg" width="34.259" height="28" viewBox="0 0 34.259 28">
  <path id="charging-pass-primary" d="M36.381,11.932c-.824-.306-1.915,0-3.026,0-1.321-2.432-1.207-5.439-3.83-6.665-1.494-.747-16.949-.8-18.52.019-2.528,1.168-2.6,4.29-3.964,6.665-1.149.134-2.068-.249-2.949,0C2,12.736,3.115,16.413,5.7,15.666a7.105,7.105,0,0,0-1,2.873L4.532,19.8c-.23,2.3-.192,5-.192,7.316v3.83c0,2.317,4.979,2.317,4.979,0V28.709h9.691V26.123h-.192A5.5,5.5,0,0,1,14.8,20.818V17.543a1.13,1.13,0,0,1,1.168-1.149h.689V12.736a1.015,1.015,0,0,1,1.034-1.015h.632a1.015,1.015,0,0,1,1.015,1.034v3.658h2.049V12.755A1.015,1.015,0,0,1,22.42,11.74h.555a1,1,0,0,1,1.015,1.015v3.658h.689a1.13,1.13,0,0,1,1.149,1.168v3.237A5.477,5.477,0,0,1,21.9,26.027h-.326v2.585h9.576v2.279c0,2.317,4.73,2.3,4.73,0,0-1.015.172-6.952.172-8.274a18.386,18.386,0,0,0-1.264-7.067,2.011,2.011,0,0,0,1.59-3.62Z" transform="translate(-3 -4.687)" fill="#51b2dd"/>
</svg>
