<svg xmlns="http://www.w3.org/2000/svg" xmlns:xlink="http://www.w3.org/1999/xlink" width="68" height="73" viewBox="0 0 68 73">
  <defs>
    <filter id="Union_1" x="0" y="0" width="68" height="73" filterUnits="userSpaceOnUse">
      <feOffset dy="3" input="SourceAlpha"/>
      <feGaussianBlur stdDeviation="3" result="blur"/>
      <feFlood flood-opacity="0.161"/>
      <feComposite operator="in" in2="blur"/>
      <feComposite in="SourceGraphic"/>
    </filter>
  </defs>
  <g id="Map_Marker_-_White_label_charge_points" data-name="Map Marker - White label charge points" transform="translate(9 6)">
    <g transform="matrix(1, 0, 0, 1, -9, -6)" filter="url(#Union_1)">
      <g id="Union_1-2" data-name="Union 1" transform="translate(9 6)" fill="#fff">
        <path d="M 25.00000381469727 53.51774597167969 L 20.86705017089844 48.99578857421875 L 20.64543914794922 48.75331115722656 L 20.32320022583008 48.68949127197266 C 14.95063972473145 47.62535858154297 10.05261039733887 44.69834899902344 6.531380176544189 40.44765090942383 C 4.779240131378174 38.33251190185547 3.412869930267334 35.95769882202148 2.470230102539062 33.3891716003418 C 1.494660019874573 30.73089027404785 1 27.93293952941895 1 25.07305908203125 C 1 21.82258987426758 1.634570002555847 18.66983032226562 2.886100053787231 15.70236968994141 C 4.095059871673584 12.83582973480225 5.825930118560791 10.26121044158936 8.03065013885498 8.050049781799316 C 10.23517036437988 5.839069843292236 12.80191993713379 4.103330135345459 15.6596097946167 2.891050100326538 C 18.61751937866211 1.636240005493164 21.76008033752441 1 25 1 C 28.24015045166016 1 31.38285064697266 1.636240005493164 34.3408088684082 2.891050100326538 C 37.19850921630859 4.103320121765137 39.76523971557617 5.839059829711914 41.96971130371094 8.050040245056152 C 44.17433929443359 10.26117992401123 45.9051399230957 12.83578968048096 47.11402893066406 15.70234966278076 C 48.36547088623047 18.66979026794434 49 21.82254981994629 49 25.07305908203125 C 49 27.93297004699707 48.5053596496582 30.73092079162598 47.52983093261719 33.38919830322266 C 46.58723068237305 35.95775985717773 45.22090148925781 38.33258056640625 43.46878814697266 40.44770812988281 C 39.94760894775391 44.69844818115234 35.04951858520508 47.62548065185547 29.67679977416992 48.68959045410156 L 29.35457038879395 48.75342178344727 L 29.13294982910156 48.99589157104492 L 25.00000381469727 53.51774597167969 Z" stroke="none"/>
        <path d="M 25.00002098083496 52.03549194335938 L 28.83805084228516 47.83628845214844 L 29.48251914978027 47.70864868164062 C 34.63024139404297 46.68909072875977 39.32382965087891 43.88388824462891 42.69868850708008 39.80978012084961 C 44.37812042236328 37.78239059448242 45.68769836425781 35.50629043579102 46.59104919433594 33.0446891784668 C 47.52595901489258 30.49710083007812 48 27.81505966186523 48 25.07305908203125 C 48 21.95673942565918 47.39191055297852 18.93471908569336 46.19261932373047 16.0909309387207 C 45.03395843505859 13.34348964691162 43.37490844726562 10.87569046020508 41.26155853271484 8.756099700927734 C 39.14857864379883 6.63686990737915 36.6887092590332 4.973320007324219 33.95027923583984 3.811640024185181 C 31.11654090881348 2.609519958496094 28.1052303314209 2 25 2 C 21.89500045776367 2 18.88384056091309 2.609519958496094 16.05014038085938 3.811630010604858 C 13.31171989440918 4.973330020904541 10.85182952880859 6.636889934539795 8.738789558410645 8.756119728088379 C 6.625349998474121 10.87574005126953 4.966229915618896 13.34354019165039 3.807499885559082 16.09096908569336 C 2.608129978179932 18.93478012084961 2 21.95679092407227 2 25.07305908203125 C 2 27.81502914428711 2.47406005859375 30.49706077575684 3.40900993347168 33.04465103149414 C 4.312389850616455 35.50622177124023 5.622010231018066 37.78231811523438 7.301479816436768 39.80971145629883 C 10.6763801574707 43.8837890625 15.3699197769165 46.68898010253906 20.51749992370605 47.70854187011719 L 21.16196060180664 47.83618927001953 L 25.00002098083496 52.03549194335938 M 25 55 L 20.12891006469727 49.67042922973633 C 8.653809547424316 47.39759063720703 -3.552713678800501e-15 37.24945831298828 -3.552713678800501e-15 25.07305908203125 C -3.552713678800501e-15 11.22624015808105 11.19336032867432 -3.552713678800501e-15 25 -3.552713678800501e-15 C 38.80762100219727 -3.552713678800501e-15 50 11.22624015808105 50 25.07305908203125 C 50 37.24945831298828 41.3466796875 47.39768981933594 29.87108993530273 49.67053985595703 L 25 55 Z" stroke="none" fill="#d2d2cb"/>
      </g>
    </g>
    <path id="Path_23315" data-name="Path 23315" d="M24.241,7.14h-.428V4.827a.635.635,0,0,0-.6-.669h-.394a.636.636,0,0,0-.648.624V7.116H20.865V4.8a.636.636,0,0,0-.624-.648h-.358a.636.636,0,0,0-.648.624V7.1h-.451a.717.717,0,0,0-.728.705V9.868A3.469,3.469,0,0,0,20.6,13.222h0l.347.069V21.5a1.734,1.734,0,0,1-3.469,0V18.032a4.036,4.036,0,0,0-3.758-4.012V5.6a2.6,2.6,0,0,0-2.6-2.6H5.6A2.6,2.6,0,0,0,3,5.6v18.72a.648.648,0,0,0,.648.648h9.4a.648.648,0,0,0,.648-.648V15.176a2.879,2.879,0,0,1,2.6,2.856V21.5a2.891,2.891,0,0,0,5.781,0v-8.21l.4-.093A3.3,3.3,0,0,0,24.97,9.938V7.868a.717.717,0,0,0-.705-.728ZM11.776,11.765,7.787,17.916a.255.255,0,0,1-.162.116H7.5a.267.267,0,0,1-.162-.278l.705-4.186H5.128a.254.254,0,0,1-.22-.162.23.23,0,0,1,0-.243l4-6.2A.243.243,0,0,1,9.2,6.874a.254.254,0,0,1,.162.266l-.705,4.2h2.914a.244.244,0,0,1,.22.127.256.256,0,0,1-.012.254Z" transform="translate(11.719 11.828)" fill="#5b5b5b"/>
  </g>
</svg>
