<svg xmlns="http://www.w3.org/2000/svg" xmlns:xlink="http://www.w3.org/1999/xlink" width="68" height="73" viewBox="0 0 68 73">
  <defs>
    <filter id="Union_1" x="0" y="0" width="68" height="73" filterUnits="userSpaceOnUse">
      <feOffset dy="3" input="SourceAlpha"/>
      <feGaussianBlur stdDeviation="3" result="blur"/>
      <feFlood flood-opacity="0.161"/>
      <feComposite operator="in" in2="blur"/>
      <feComposite in="SourceGraphic"/>
    </filter>
    <clipPath id="clip-path">
      <rect id="Rectangle_2874" data-name="Rectangle 2874" width="23.386" height="26.934" fill="none"/>
    </clipPath>
  </defs>
  <g id="Group_13925" data-name="Group 13925" transform="translate(-67 -408)">
    <g transform="matrix(1, 0, 0, 1, 67, 408)" filter="url(#Union_1)">
      <path id="Union_1-2" data-name="Union 1" d="M20.129,49.67a25,25,0,1,1,9.742,0L25,55Z" transform="translate(9 6)" fill="#9cc923"/>
    </g>
    <g id="Group_9414" data-name="Group 9414" transform="translate(89.317 425.347)">
      <path id="Path_295" data-name="Path 295" d="M84.91,37.073h1.015l-.491-1.553Z" transform="translate(-75.465 -31.568)" fill="#fff"/>
      <g id="Group_9413" data-name="Group 9413">
        <g id="Group_9412" data-name="Group 9412" clip-path="url(#clip-path)">
          <path id="Path_296" data-name="Path 296" d="M36.481,27.452a.772.772,0,0,0-.689-.326H35.16V30.4h.632a.772.772,0,0,0,.689-.328.691.691,0,0,0,.094-.205,2.124,2.124,0,0,0,.042-.35c.011-.165.016-.416.016-.755a9.029,9.029,0,0,0-.03-.948.817.817,0,0,0-.122-.362" transform="translate(-31.249 -24.108)" fill="#fff"/>
          <path id="Path_297" data-name="Path 297" d="M0,9.46H23.388V0H0ZM6.816,4.653v.475a5.845,5.845,0,0,1-.038.72,2.023,2.023,0,0,1-.17.587,1.91,1.91,0,0,1-.4.558,2.117,2.117,0,0,1-1.568.571H2.483V1.742H4.641a2.117,2.117,0,0,1,1.568.571,1.923,1.923,0,0,1,.4.557,2.028,2.028,0,0,1,.17.587,5.852,5.852,0,0,1,.038.721Zm4.293,2.911L10.837,6.7H9.045l-.284.867h-1.5L9.38,1.742h1.106L12.6,7.564Zm5.5-4.547H15.177V7.564H13.748V3.017H12.315V1.742h4.3Zm4.366,3.753a1.872,1.872,0,0,1-.814.629,2.92,2.92,0,0,1-1.133.213,4.139,4.139,0,0,1-1.258-.171,2.307,2.307,0,0,1-.95-.6l.918-.918a1.269,1.269,0,0,0,.568.313,2.7,2.7,0,0,0,.73.1q.835,0,.835-.524a.475.475,0,0,0-.116-.343.645.645,0,0,0-.384-.155l-.7-.1A1.955,1.955,0,0,1,17.5,4.7a1.613,1.613,0,0,1-.4-1.17,1.769,1.769,0,0,1,.257-.948A1.743,1.743,0,0,1,18.1,1.93a2.536,2.536,0,0,1,1.129-.236,3.448,3.448,0,0,1,1.124.166,2.157,2.157,0,0,1,.841.529l-.9.9A1.006,1.006,0,0,0,19.809,3a2.79,2.79,0,0,0-.623-.06.75.75,0,0,0-.523.164.5.5,0,0,0-.18.376.371.371,0,0,0,.116.271.678.678,0,0,0,.4.172l.7.1a2.016,2.016,0,0,1,1.146.482,1.283,1.283,0,0,1,.329.533,2.424,2.424,0,0,1,.1.745,1.634,1.634,0,0,1-.3.986" transform="translate(-0.002 0.001)" fill="#fff"/>
          <path id="Path_298" data-name="Path 298" d="M0,110.464H23.386V93.985H0Zm10.714-4.526v2.672H2.444v-2.672l4.656-5.06a3.142,3.142,0,0,0,.507-.679,1.522,1.522,0,0,0,.145-.687,1.225,1.225,0,0,0-.3-.868,1.114,1.114,0,0,0-.855-.321,1.31,1.31,0,0,0-.846.282,1.164,1.164,0,0,0-.353.961H2.444A3.877,3.877,0,0,1,3,97.468a3.6,3.6,0,0,1,1.5-1.353,4.708,4.708,0,0,1,2.1-.463,4.69,4.69,0,0,1,2.129.467,3.493,3.493,0,0,1,1.459,1.355,3.926,3.926,0,0,1,.529,2.057,3.216,3.216,0,0,1-.361,1.591,8.312,8.312,0,0,1-1.234,1.565L6.05,105.939Zm10.549.97h-.952v1.7H17.5v-1.7H12.165V104.1l4.269-8.339h3.245l-4.26,8.339H17.5v-1.7h2.813v1.7h.952Z" transform="translate(0 -83.53)" fill="#fff"/>
        </g>
      </g>
    </g>
  </g>
</svg>
