<svg xmlns="http://www.w3.org/2000/svg" xmlns:xlink="http://www.w3.org/1999/xlink" width="68" height="73" viewBox="0 0 68 73">
  <defs>
    <filter id="Union_1" x="0" y="0" width="68" height="73" filterUnits="userSpaceOnUse">
      <feOffset dy="3" input="SourceAlpha"/>
      <feGaussianBlur stdDeviation="3" result="blur"/>
      <feFlood flood-opacity="0.161"/>
      <feComposite operator="in" in2="blur"/>
      <feComposite in="SourceGraphic"/>
    </filter>
  </defs>
  <g id="Group_13932" data-name="Group 13932" transform="translate(-67 -408)">
    <g transform="matrix(1, 0, 0, 1, 67, 408)" filter="url(#Union_1)">
      <path id="Union_1-2" data-name="Union 1" d="M20.129,49.67a25,25,0,1,1,9.742,0L25,55Z" transform="translate(9 6)" fill="#757575"/>
    </g>
    <path id="Path_23315" data-name="Path 23315" d="M24.241,7.14h-.428V4.827a.635.635,0,0,0-.6-.669h-.394a.636.636,0,0,0-.648.624V7.116H20.865V4.8a.636.636,0,0,0-.624-.648h-.358a.636.636,0,0,0-.648.624V7.1h-.451a.717.717,0,0,0-.728.705V9.868A3.469,3.469,0,0,0,20.6,13.222h0l.347.069V21.5a1.734,1.734,0,0,1-3.469,0V18.032a4.036,4.036,0,0,0-3.758-4.012V5.6a2.6,2.6,0,0,0-2.6-2.6H5.6A2.6,2.6,0,0,0,3,5.6v18.72a.648.648,0,0,0,.648.648h9.4a.648.648,0,0,0,.648-.648V15.176a2.879,2.879,0,0,1,2.6,2.856V21.5a2.891,2.891,0,0,0,5.781,0v-8.21l.4-.093A3.3,3.3,0,0,0,24.97,9.938V7.868a.717.717,0,0,0-.705-.728ZM11.776,11.765,7.787,17.916a.255.255,0,0,1-.162.116H7.5a.267.267,0,0,1-.162-.278l.705-4.186H5.128a.254.254,0,0,1-.22-.162.23.23,0,0,1,0-.243l4-6.2A.243.243,0,0,1,9.2,6.874a.254.254,0,0,1,.162.266l-.705,4.2h2.914a.244.244,0,0,1,.22.127.256.256,0,0,1-.012.254Z" transform="translate(87.719 425.829)" fill="#fff"/>
  </g>
</svg>
